<mxfile host="Electron" agent="Mozilla/5.0 (Windows NT 10.0; Win64; x64) AppleWebKit/537.36 (KHTML, like Gecko) draw.io/26.2.15 Chrome/134.0.6998.205 Electron/35.2.1 Safari/537.36" version="26.2.15">
  <diagram name="Page-1" id="_rrxmtrhAg-4XYwGg4MB">
    <mxGraphModel dx="1213" dy="828" grid="1" gridSize="10" guides="1" tooltips="1" connect="1" arrows="1" fold="1" page="1" pageScale="1" pageWidth="1400" pageHeight="850" background="#ffffff" math="0" shadow="0">
      <root>
        <mxCell id="0" />
        <mxCell id="1" parent="0" />
        <mxCell id="Btjjg7Qx3aeAWUV-296k-52" value="" style="rounded=0;whiteSpace=wrap;html=1;fillColor=none;dashed=1;dashPattern=8 8;" parent="1" vertex="1">
          <mxGeometry x="60" y="110" width="1300" height="660" as="geometry" />
        </mxCell>
        <mxCell id="Btjjg7Qx3aeAWUV-296k-2" value="" style="rounded=1;whiteSpace=wrap;html=1;fillColor=none;strokeColor=#b85450;" parent="1" vertex="1">
          <mxGeometry x="90" y="220" width="220" height="520" as="geometry" />
        </mxCell>
        <mxCell id="Btjjg7Qx3aeAWUV-296k-3" value="&lt;font style=&quot;color: rgb(0, 0, 0);&quot;&gt;DEFINE&lt;/font&gt;" style="rounded=1;whiteSpace=wrap;html=1;fillColor=#f8cecc;fontStyle=1;strokeColor=#b85450;" parent="1" vertex="1">
          <mxGeometry x="140" y="200" width="120" height="40" as="geometry" />
        </mxCell>
        <mxCell id="Btjjg7Qx3aeAWUV-296k-6" value="" style="rounded=1;whiteSpace=wrap;html=1;fillColor=none;strokeColor=#d79b00;" parent="1" vertex="1">
          <mxGeometry x="345" y="220" width="220" height="520" as="geometry" />
        </mxCell>
        <mxCell id="Btjjg7Qx3aeAWUV-296k-7" value="&lt;font style=&quot;color: rgb(0, 0, 0);&quot;&gt;MEASURE&lt;/font&gt;" style="rounded=1;whiteSpace=wrap;html=1;fillColor=#ffe6cc;fontStyle=1;strokeColor=#d79b00;" parent="1" vertex="1">
          <mxGeometry x="395" y="200" width="120" height="40" as="geometry" />
        </mxCell>
        <mxCell id="Btjjg7Qx3aeAWUV-296k-9" value="" style="rounded=1;whiteSpace=wrap;html=1;fillColor=none;strokeColor=#A88F45;" parent="1" vertex="1">
          <mxGeometry x="605" y="220" width="220" height="520" as="geometry" />
        </mxCell>
        <mxCell id="Btjjg7Qx3aeAWUV-296k-10" value="&lt;font style=&quot;color: rgb(0, 0, 0);&quot;&gt;ANALYZE&lt;/font&gt;" style="rounded=1;whiteSpace=wrap;html=1;fillColor=#fff2cc;fontStyle=1;strokeColor=#d6b656;" parent="1" vertex="1">
          <mxGeometry x="655" y="200" width="120" height="40" as="geometry" />
        </mxCell>
        <mxCell id="Btjjg7Qx3aeAWUV-296k-12" value="" style="rounded=1;whiteSpace=wrap;html=1;fillColor=none;strokeColor=#6c8ebf;" parent="1" vertex="1">
          <mxGeometry x="855" y="220" width="220" height="520" as="geometry" />
        </mxCell>
        <mxCell id="Btjjg7Qx3aeAWUV-296k-13" value="&lt;font style=&quot;color: rgb(0, 0, 0);&quot;&gt;IMPROVE&lt;/font&gt;" style="rounded=1;whiteSpace=wrap;html=1;fillColor=#dae8fc;fontStyle=1;strokeColor=#6c8ebf;" parent="1" vertex="1">
          <mxGeometry x="905" y="200" width="120" height="40" as="geometry" />
        </mxCell>
        <mxCell id="Btjjg7Qx3aeAWUV-296k-15" value="" style="rounded=1;whiteSpace=wrap;html=1;fillColor=none;strokeColor=#82b366;" parent="1" vertex="1">
          <mxGeometry x="1105" y="220" width="220" height="520" as="geometry" />
        </mxCell>
        <mxCell id="Btjjg7Qx3aeAWUV-296k-16" value="&lt;font style=&quot;color: rgb(0, 0, 0);&quot;&gt;CONTROL&lt;/font&gt;" style="rounded=1;whiteSpace=wrap;html=1;fillColor=#d5e8d4;fontStyle=1;strokeColor=#82b366;" parent="1" vertex="1">
          <mxGeometry x="1155" y="200" width="120" height="40" as="geometry" />
        </mxCell>
        <mxCell id="Btjjg7Qx3aeAWUV-296k-18" value="&lt;b&gt;Task:&lt;/b&gt;&lt;br&gt;Create Power BI Dashboard to monitor performance and Training Improvements.&lt;div&gt;&lt;br&gt;&lt;/div&gt;&lt;div&gt;&lt;b&gt;Tools:&lt;/b&gt;&lt;/div&gt;&lt;div&gt;Power BI&amp;nbsp;&lt;/div&gt;" style="text;html=1;align=left;verticalAlign=middle;whiteSpace=wrap;rounded=0;" parent="1" vertex="1">
          <mxGeometry x="1125" y="495" width="200" height="125" as="geometry" />
        </mxCell>
        <mxCell id="Btjjg7Qx3aeAWUV-296k-19" value="" style="sketch=0;outlineConnect=0;fillColor=#f8cecc;strokeColor=#b85450;dashed=0;verticalLabelPosition=bottom;verticalAlign=top;align=center;html=1;fontSize=12;fontStyle=0;aspect=fixed;pointerEvents=1;shape=mxgraph.aws4.question;" parent="1" vertex="1">
          <mxGeometry x="181.6" y="270" width="36.8" height="70" as="geometry" />
        </mxCell>
        <mxCell id="Btjjg7Qx3aeAWUV-296k-23" value="" style="sketch=0;outlineConnect=0;fillColor=#C1B69B;strokeColor=#d6b656;dashed=0;verticalLabelPosition=bottom;verticalAlign=top;align=center;html=1;fontSize=12;fontStyle=0;aspect=fixed;shape=mxgraph.aws4.mainframe_modernization_analyzer;" parent="1" vertex="1">
          <mxGeometry x="676" y="270" width="78" height="78" as="geometry" />
        </mxCell>
        <mxCell id="Btjjg7Qx3aeAWUV-296k-24" value="" style="html=1;verticalLabelPosition=bottom;align=center;labelBackgroundColor=#ffffff;verticalAlign=top;strokeWidth=2;strokeColor=#6c8ebf;shadow=0;dashed=0;shape=mxgraph.ios7.icons.tools;pointerEvents=1;fillColor=#dae8fc;" parent="1" vertex="1">
          <mxGeometry x="927.75" y="270" width="74.5" height="74.5" as="geometry" />
        </mxCell>
        <mxCell id="Btjjg7Qx3aeAWUV-296k-25" value="" style="sketch=0;html=1;aspect=fixed;strokeColor=#82b366;shadow=0;fillColor=#d5e8d4;verticalAlign=top;labelPosition=center;verticalLabelPosition=bottom;shape=mxgraph.gcp2.arrow_cycle" parent="1" vertex="1">
          <mxGeometry x="1170.53" y="266.75" width="88.95" height="84.5" as="geometry" />
        </mxCell>
        <mxCell id="Btjjg7Qx3aeAWUV-296k-26" value="" style="shape=image;verticalLabelPosition=bottom;labelBackgroundColor=default;verticalAlign=top;aspect=fixed;imageAspect=0;image=data:image/png,iVBORw0KGgoAAAANSUhEUgAAAYoAAAGKCAMAAAAloPYiAAAAAXNSR0IArs4c6QAAAARnQU1BAACxjwv8YQUAAABpUExURQAAAP/rxP/nzf/nzf/ttv/lzP/////lzP/mzP/lzP//AP/my//mzP/kyP/mzv/kyf8AAP/ny//myv/mzP/ozv/mzv/mzP/lzP/mzf/my//tyP/ly//nzf/ozv/mzf/mzf/btv/izv/ozUwC/OkAAAAjdFJOUwANgKcOzgGBmnQBwbRBpmgBQFumTjQoszPADifApsDNDhpNJOQ7VQAAAAlwSFlzAAAXEQAAFxEByibzPwAACEJJREFUeF7t3dly4zYQRmF5PMo48WRxVifO/v4PmfYEE8sekegG+28i1jk3RkkgUcXvwlUUijwQERERERERERHRJF21v7R3b67fthHt25vjEYspMgkspuiDBBYT1CTM4rP2Ce3TuwZhYbFrJxJY7NozCSx27IUEFrv1iQQWO3VGAotdOitxPN5gUd2CBBblLUpgUdyKBBalrUpgUVhHAouyuhJYFOWQwKIklwQWBTklsJDnlsBCXEACC2khCSyEBSWwkBWWwELUgAQWkoYksBA0KIFFesMSWCS3QeJ4/PyLdhba3iYJLBLbKIFFWpslsEiqL3H7vg2WwyIhh8SXV1+14XJYbM4jcThgoc8n4bL4+psPZ6SxvBJYqPNLYKHNIXHXplpY6IpJYKErKoGFqriEy+LbNpXcjUhgoWhMwiy+a18vh0WoUQksshuXwCK3LRJYZLZNwmXxfZtKq22VwCKr7RJY5JQhgUVGORJYbC9LAout5Ulgsa1MCSy2lCuBxXjZEliMli+BxVgKCSxG0khgEU8l4bL4oU0lSyeBRSylBBaRtBJY+FNLYOFNL4GFrwoJLDzVSGDRr0oCi151ElisVymBxVq1ElgsVy2BxVL1Eh6L2x/b1AtqDwkszrWPBBaftpcEFi/bTwKL5+0pgcVp+0pg8dTeElh8bH8Js/ipLbXYJVjMIHG4/7mttdy7V/9I1P+NxC9t7qsNiVlCYpaQmCUkZilf4uEm/HQnJCyBxK/H6+ATS5GwJBLRt84jYYkkYhZIWDKJiAUSllDCb4GEJZXwWiBhiSV8FkhYcgmPBRJWgUTfAgmrRKJngYRVJLFugYSVL3G4+q0d+aJlCyQsgUTcAglLIhG1QMISScQskLBkEhELJCyhhN/i/vf2xXJIbJLwWiBhiSV8FkhYcgmPhUfibZv7aiuQ6FsgYZVI9CyQsIok1i2QsMok1iyQsAolVixu22A5JFIlzKL/IrzzIZEsMWyBRLrEoAUSAokhCyQkEgMWSIgkwhZIyCSCFkgIJUIWSEglAhZIiCXcFkjIJZwWSBRIHA53f7S1lkOiROL+/AbO05BAoiokZgmJWUJilpCYpXyJh+urNnKHhCWQuD2+D1ogYUkkjkELJCyRRMwCCUsmEbFAwhJK+C3u2e8klvBaIGGJJXwWSFhyCY+FR+LPNvfVViDRt0DCKpHoWSBh5UscbtqBz1uzQMISSByurtuhz1u2QMJSSIQtkLA0EkELJCyVRMgCCUsnEbBAwlJKuC2QsLQSTgskLLWEywIJSy/hsEDCqpDoWiBh1Uh0LJCwqiRWLZCw6iRWLDwSJ//gX2eVEssWSFRLLFp0QyJbYtQCiXyJMQskFBIjFkhoJOIWSKgkohZI6CRiFkgoJSIWSGgl/BZIqCW8FkjoJczifVtqJSQqJFz3YpFAoigkZgmJWUJilpCYpXyJh/g1Q8ISSNyebipzhYSlkHjayOQMCUsjEbRAwlJJhCyQsHQSAQskLKWE2wIJSyvhtEDCUku4LJCw9BIOCySsComuBRJWjUTHAgkrX2Lph+kVCyQsgUTcAglLIhG1QMISScQskLBkEhELJCyhhN8CCUsq4bVAwhJL+CyQsOQSHgskrAKJvgUSVolEzwIJq0hi3QIJq0xizQIJq1Bi2eIOiWKJRYt+SCRLDFsgkS4xaIGEQGLIAgmJxIAFEiKJsAUSMomgBRJCiZAFElKJgAUSYgm3BRJyCacFEgUSh8NdW2olJEokuBdrITFLSMwSErOExCwhMUv5Eg/X4YuGhCWQuD3dVOYKCUsicbKpzBUSlkgiZoGEJZOIWCBhCSX8FkhYUgmvBRKWWMJngYQll/BYIGEVSPQtkLBKJHoWSFj5EofzT85fs0DCEkgc/jp/YZctkLAUEmELJCyNRNACCUslEbJAwtJJBCyQsJQSbgskLK2E0wIJSy3hskDC0ks4LJCwKiS6FkhYNRIdCySsKolVCySsOokVCySsSollCySqJRYtuiGRLTFqgUS+xJgFEgqJEQskNBJxCyRUElELJHQSMQsklBIRCyS0En4LJNQSXgsk9BI+CyQqJLgX+xgSs4TELCExS0jMEhKzlC/xEL9mSFgCidvTTWWukLAUEk8bmZwhYWkkghZIWCqJkAUSlk4iYIGEpZRwWyBhaSWcFkhYagmXBRKWXsJhgYRVIdG1QMKqkehYIGHlSyz9GLpigYQlkIhbIGFJJKIWSFgiiZgFEpZMImKBhCWU8FsgYUklvBZIWH2J4xYJnwUSlucVZjdt7mB9CyQ+NIEFEq3dLZD4r50tkDhpVwsknrWjxR0Sz9vPot9lScxscWkS81pcnsSsFpcoMafFZUrMaHGpEvNZXK7EbBaXLDGXxWVLzGRx6RLzWCBRYvF3O81KSDwmt+BerDuxBRKBpBZIhBJaIBFMZoFEOJEFEgNJLJAYSmCBxGDpFkgMl2yBxIZSLZDYVKIFEhtLs0Bic0kWSCSUYoFESgkWSCS12QKJtDZaIJHYJgskUttggURywxZIpDdogYSgIQskJA1YICEqbIGErKAFEsJCFkhIC1ggIc5tgYQ8pwUSBbkskCjJY9EPiYwyLJDIabsFEllttUAir20WSGS2xQKJ3MYtkMhu1AKJ/MYskFA0YoGEprgFEqqiFkjoilkgoSxigYQ2vwUS6rwWSOjzWSBRkccCiZr6FkhU1bNAoq51CyQqW7NAorZlCySqW7JAor7zFkjs0TkLJPbpUwsk9uqlBRL79dwCiT07tUBi354skNi7jxZI7N+/FkjM0KMFEnN0dY3ENCFBREREREREREQ0RYfDP9O6WWqNexziAAAAAElFTkSuQmCC;" parent="1" vertex="1">
          <mxGeometry x="414.38" y="270" width="81.25" height="81.25" as="geometry" />
        </mxCell>
        <mxCell id="Btjjg7Qx3aeAWUV-296k-27" value="" style="html=1;shadow=0;dashed=0;align=center;verticalAlign=middle;shape=mxgraph.arrows2.arrow;dy=0.6;dx=40;notch=15;fillColor=#1ba1e2;fontColor=#ffffff;strokeColor=#006EAF;" parent="1" vertex="1">
          <mxGeometry x="290" y="418" width="100" height="70" as="geometry" />
        </mxCell>
        <mxCell id="Btjjg7Qx3aeAWUV-296k-32" value="" style="html=1;shadow=0;dashed=0;align=center;verticalAlign=middle;shape=mxgraph.arrows2.arrow;dy=0.6;dx=40;notch=15;fillColor=#1ba1e2;fontColor=#ffffff;strokeColor=#006EAF;" parent="1" vertex="1">
          <mxGeometry x="550" y="425" width="100" height="70" as="geometry" />
        </mxCell>
        <mxCell id="Btjjg7Qx3aeAWUV-296k-33" value="" style="html=1;shadow=0;dashed=0;align=center;verticalAlign=middle;shape=mxgraph.arrows2.arrow;dy=0.6;dx=40;notch=15;fillColor=#1ba1e2;fontColor=#ffffff;strokeColor=#006EAF;" parent="1" vertex="1">
          <mxGeometry x="800" y="425" width="100" height="70" as="geometry" />
        </mxCell>
        <mxCell id="Btjjg7Qx3aeAWUV-296k-34" value="" style="html=1;shadow=0;dashed=0;align=center;verticalAlign=middle;shape=mxgraph.arrows2.arrow;dy=0.6;dx=40;notch=15;fillColor=#1ba1e2;fontColor=#ffffff;strokeColor=#006EAF;" parent="1" vertex="1">
          <mxGeometry x="1055" y="418" width="100" height="70" as="geometry" />
        </mxCell>
        <mxCell id="Btjjg7Qx3aeAWUV-296k-35" value="" style="endArrow=none;html=1;rounded=0;strokeWidth=2;fillColor=#f8cecc;strokeColor=#b85450;" parent="1" edge="1">
          <mxGeometry width="50" height="50" relative="1" as="geometry">
            <mxPoint x="120" y="370" as="sourcePoint" />
            <mxPoint x="280" y="370" as="targetPoint" />
          </mxGeometry>
        </mxCell>
        <mxCell id="Btjjg7Qx3aeAWUV-296k-36" value="" style="endArrow=none;html=1;rounded=0;strokeWidth=2;fillColor=#f8cecc;strokeColor=#b85450;" parent="1" edge="1">
          <mxGeometry width="50" height="50" relative="1" as="geometry">
            <mxPoint x="120" y="380" as="sourcePoint" />
            <mxPoint x="280" y="380" as="targetPoint" />
          </mxGeometry>
        </mxCell>
        <mxCell id="Btjjg7Qx3aeAWUV-296k-37" value="" style="endArrow=none;html=1;rounded=0;strokeWidth=2;fillColor=#ffe6cc;strokeColor=#d79b00;" parent="1" edge="1">
          <mxGeometry width="50" height="50" relative="1" as="geometry">
            <mxPoint x="375" y="370" as="sourcePoint" />
            <mxPoint x="535" y="370" as="targetPoint" />
          </mxGeometry>
        </mxCell>
        <mxCell id="Btjjg7Qx3aeAWUV-296k-38" value="" style="endArrow=none;html=1;rounded=0;strokeWidth=2;fillColor=#ffe6cc;strokeColor=#d79b00;" parent="1" edge="1">
          <mxGeometry width="50" height="50" relative="1" as="geometry">
            <mxPoint x="375" y="380" as="sourcePoint" />
            <mxPoint x="535" y="380" as="targetPoint" />
          </mxGeometry>
        </mxCell>
        <mxCell id="Btjjg7Qx3aeAWUV-296k-39" value="" style="endArrow=none;html=1;rounded=0;strokeWidth=2;fillColor=#fff2cc;strokeColor=#d6b656;" parent="1" edge="1">
          <mxGeometry width="50" height="50" relative="1" as="geometry">
            <mxPoint x="635" y="370" as="sourcePoint" />
            <mxPoint x="795" y="370" as="targetPoint" />
          </mxGeometry>
        </mxCell>
        <mxCell id="Btjjg7Qx3aeAWUV-296k-40" value="" style="endArrow=none;html=1;rounded=0;strokeWidth=2;fillColor=#fff2cc;strokeColor=#d6b656;" parent="1" edge="1">
          <mxGeometry width="50" height="50" relative="1" as="geometry">
            <mxPoint x="635" y="380" as="sourcePoint" />
            <mxPoint x="795" y="380" as="targetPoint" />
          </mxGeometry>
        </mxCell>
        <mxCell id="Btjjg7Qx3aeAWUV-296k-41" value="" style="endArrow=none;html=1;rounded=0;strokeWidth=2;fillColor=#dae8fc;strokeColor=#6c8ebf;" parent="1" edge="1">
          <mxGeometry width="50" height="50" relative="1" as="geometry">
            <mxPoint x="885" y="370" as="sourcePoint" />
            <mxPoint x="1045" y="370" as="targetPoint" />
          </mxGeometry>
        </mxCell>
        <mxCell id="Btjjg7Qx3aeAWUV-296k-42" value="" style="endArrow=none;html=1;rounded=0;strokeWidth=2;fillColor=#dae8fc;strokeColor=#6c8ebf;" parent="1" edge="1">
          <mxGeometry width="50" height="50" relative="1" as="geometry">
            <mxPoint x="885" y="380" as="sourcePoint" />
            <mxPoint x="1045" y="380" as="targetPoint" />
          </mxGeometry>
        </mxCell>
        <mxCell id="Btjjg7Qx3aeAWUV-296k-43" value="" style="endArrow=none;html=1;rounded=0;strokeWidth=2;fillColor=#d5e8d4;strokeColor=#82b366;" parent="1" edge="1">
          <mxGeometry width="50" height="50" relative="1" as="geometry">
            <mxPoint x="1140" y="370" as="sourcePoint" />
            <mxPoint x="1300" y="370" as="targetPoint" />
          </mxGeometry>
        </mxCell>
        <mxCell id="Btjjg7Qx3aeAWUV-296k-44" value="" style="endArrow=none;html=1;rounded=0;strokeWidth=2;fillColor=#d5e8d4;strokeColor=#82b366;" parent="1" edge="1">
          <mxGeometry width="50" height="50" relative="1" as="geometry">
            <mxPoint x="1140" y="380" as="sourcePoint" />
            <mxPoint x="1300" y="380" as="targetPoint" />
          </mxGeometry>
        </mxCell>
        <mxCell id="Btjjg7Qx3aeAWUV-296k-46" value="&lt;b&gt;Task:&lt;/b&gt;&lt;br&gt;Conclude findingsby listing summary of insights.&amp;nbsp;&lt;div&gt;&lt;br&gt;&lt;/div&gt;&lt;div&gt;Provide an actionable list of recommendations along with their rational&lt;br&gt;&lt;div&gt;&lt;br&gt;&lt;/div&gt;&lt;div&gt;&lt;b&gt;Tools:&lt;/b&gt;&lt;/div&gt;&lt;div&gt;Python, Jupyter Notebook (Markdown)&lt;/div&gt;&lt;/div&gt;" style="text;html=1;align=left;verticalAlign=middle;whiteSpace=wrap;rounded=0;" parent="1" vertex="1">
          <mxGeometry x="865" y="495" width="200" height="175" as="geometry" />
        </mxCell>
        <mxCell id="Btjjg7Qx3aeAWUV-296k-47" value="&lt;b&gt;Task:&lt;/b&gt;&lt;br&gt;Identify root causes of problems.&lt;div&gt;&lt;br&gt;&lt;/div&gt;&lt;div&gt;Gather insights on areas of improvement&lt;/div&gt;&lt;div&gt;&lt;br&gt;&lt;/div&gt;&lt;div&gt;Validate impact of causes&lt;/div&gt;&lt;div&gt;&lt;br&gt;&lt;/div&gt;&lt;div&gt;&lt;div&gt;&lt;br&gt;&lt;/div&gt;&lt;div&gt;&lt;b&gt;Tools:&lt;/b&gt;&lt;/div&gt;&lt;div&gt;Python&lt;/div&gt;&lt;/div&gt;" style="text;html=1;align=left;verticalAlign=middle;whiteSpace=wrap;rounded=0;" parent="1" vertex="1">
          <mxGeometry x="615" y="495" width="200" height="182.5" as="geometry" />
        </mxCell>
        <mxCell id="Btjjg7Qx3aeAWUV-296k-48" value="&lt;b&gt;Task:&lt;/b&gt;&lt;br&gt;Collect &amp;amp; Review the Data&lt;div&gt;&lt;br&gt;&lt;div&gt;Gather necessary libraries&lt;/div&gt;&lt;div&gt;&lt;br&gt;&lt;/div&gt;&lt;div&gt;Note any data quality issues that would need to be addressed before analyzing&lt;br&gt;&lt;div&gt;&lt;div&gt;&lt;br&gt;&lt;/div&gt;&lt;div&gt;&lt;b&gt;Tools:&lt;/b&gt;&lt;/div&gt;&lt;div&gt;Python&amp;nbsp;&lt;/div&gt;&lt;/div&gt;&lt;/div&gt;&lt;/div&gt;" style="text;html=1;align=left;verticalAlign=middle;whiteSpace=wrap;rounded=0;" parent="1" vertex="1">
          <mxGeometry x="355.01" y="495" width="200" height="190" as="geometry" />
        </mxCell>
        <mxCell id="Btjjg7Qx3aeAWUV-296k-49" value="&lt;b&gt;Task:&lt;/b&gt;&lt;br&gt;Review Problem Requirements.&lt;div&gt;&lt;span style=&quot;background-color: transparent; color: light-dark(rgb(0, 0, 0), rgb(255, 255, 255));&quot;&gt;&lt;br&gt;&lt;/span&gt;&lt;/div&gt;&lt;div&gt;&lt;span style=&quot;background-color: transparent; color: light-dark(rgb(0, 0, 0), rgb(255, 255, 255));&quot;&gt;Define problem statement.&lt;/span&gt;&lt;div&gt;&lt;div&gt;&lt;br&gt;&lt;/div&gt;&lt;div&gt;&lt;div&gt;Create project layout and list project leaders and stakeholders.&lt;/div&gt;&lt;div&gt;&lt;br&gt;&lt;/div&gt;&lt;div&gt;Set Goals for improvement&lt;/div&gt;&lt;div&gt;&lt;br&gt;&lt;/div&gt;&lt;div&gt;&lt;b&gt;Tools:&lt;/b&gt;&lt;/div&gt;&lt;div&gt;Notion, Jupyter Notebook (Markdown)&lt;/div&gt;&lt;/div&gt;&lt;/div&gt;&lt;/div&gt;" style="text;html=1;align=left;verticalAlign=middle;whiteSpace=wrap;rounded=0;" parent="1" vertex="1">
          <mxGeometry x="100" y="495" width="200" height="195" as="geometry" />
        </mxCell>
        <mxCell id="Btjjg7Qx3aeAWUV-296k-53" value="&lt;b&gt;&lt;font style=&quot;font-size: 30px;&quot;&gt;e-Commerce Customer Satisfaction Project Overview&lt;/font&gt;&lt;/b&gt;" style="rounded=0;whiteSpace=wrap;html=1;strokeColor=none;" parent="1" vertex="1">
          <mxGeometry x="305" y="80" width="790" height="60" as="geometry" />
        </mxCell>
      </root>
    </mxGraphModel>
  </diagram>
</mxfile>
